<svg width="125" height="167" viewBox="0 0 125 167" fill="none" xmlns="http://www.w3.org/2000/svg">
<path d="M59.8904 4.31487L20.0032 156.695H108.961L69.0738 4.31487C68.8313 3.27901 68.2458 2.35556 67.4122 1.69455C66.5786 1.03354 65.546 0.673828 64.4821 0.673828C63.4182 0.673828 62.3856 1.03354 61.552 1.69455C60.7184 2.35556 60.1329 3.27901 59.8904 4.31487Z" fill="#2F54EB" stroke="#263238" stroke-linecap="round" stroke-linejoin="round"/>
<path d="M20.0032 156.695H92.4776L56.2404 18.2432L20.0032 156.695Z" fill="#263238" stroke="#263238" stroke-linecap="round" stroke-linejoin="round"/>
<path d="M117.94 153.352H6.98C3.75466 153.352 1.14 155.966 1.14 159.192V159.936C1.14 163.162 3.75466 165.776 6.98 165.776H117.94C121.165 165.776 123.78 163.162 123.78 159.936V159.192C123.78 155.966 121.165 153.352 117.94 153.352Z" fill="#2F54EB" stroke="#263238" stroke-linecap="round" stroke-linejoin="round"/>
<path d="M79.9654 153.352H6.98C3.75466 153.352 1.14 155.966 1.14 159.192V159.936C1.14 163.162 3.75466 165.776 6.98 165.776H79.9654C83.1907 165.776 85.8054 163.162 85.8054 159.936V159.192C85.8054 155.966 83.1907 153.352 79.9654 153.352Z" fill="#263238" stroke="#263238" stroke-linecap="round" stroke-linejoin="round"/>
<path d="M35.9172 95.9153H93.047L86.1412 69.5186H42.823L35.9172 95.9153Z" fill="white" stroke="#263238" stroke-linecap="round" stroke-linejoin="round"/>
<path d="M35.9172 95.9153H76.5782L69.6724 69.5186H42.823L35.9172 95.9153Z" fill="#BABABA" stroke="#263238" stroke-linecap="round" stroke-linejoin="round"/>
</svg>
