<svg width="713" height="405" viewBox="0 0 713 405" fill="none" xmlns="http://www.w3.org/2000/svg">
<path d="M83.1395 1.00586H630.64C634.69 1.00586 638.574 2.61482 641.438 5.4788C644.302 8.34278 645.911 12.2272 645.911 16.2774V376.167H67.8825V16.2629C67.8864 12.2176 69.495 8.33921 72.3554 5.4788C75.2159 2.6184 79.0943 1.00972 83.1395 1.00586Z" fill="white" stroke="#263238" stroke-linecap="round" stroke-linejoin="round"/>
<path d="M622.42 30.3076H91.3301V330.44H622.42V30.3076Z" stroke="#263238" stroke-linecap="round" stroke-linejoin="round"/>
<path d="M556.807 358.107H159.585V377.671H556.807V358.107Z" fill="#263238" stroke="#263238" stroke-linecap="round" stroke-linejoin="round"/>
<path d="M556.807 367.524H159.585V377.671H556.807V367.524Z" fill="white" stroke="#263238" stroke-linecap="round" stroke-linejoin="round"/>
<path d="M21.1333 389.264C21.1333 389.264 27.6595 397.25 47.2381 403.761H669.198C669.198 403.761 683.696 400.141 690.222 389.994L21.1333 389.264Z" fill="#263238" stroke="#263238" stroke-linecap="round" stroke-linejoin="round"/>
<path d="M688.82 374.984H22.5787C21.0547 374.984 19.8193 376.22 19.8193 377.744V387.467C19.8193 388.991 21.0547 390.227 22.5787 390.227H688.82C690.344 390.227 691.58 388.991 691.58 387.467V377.744C691.58 376.22 690.344 374.984 688.82 374.984Z" fill="white" stroke="#263238" stroke-linecap="round" stroke-linejoin="round"/>
<path d="M361.824 12.3503C361.827 11.3448 361.532 10.361 360.975 9.52356C360.419 8.68611 359.626 8.03263 358.698 7.64583C357.77 7.25904 356.748 7.15635 355.761 7.35074C354.775 7.54513 353.868 8.02787 353.156 8.73785C352.444 9.44783 351.959 10.3531 351.761 11.3391C351.564 12.325 351.664 13.3474 352.048 14.2766C352.432 15.2059 353.083 16.0003 353.919 16.5592C354.755 17.1181 355.738 17.4165 356.744 17.4165C358.088 17.4165 359.379 16.8832 360.331 15.9335C361.283 14.9838 361.82 13.6953 361.824 12.3503Z" fill="white" stroke="#263238" stroke-linecap="round" stroke-linejoin="round"/>
<path d="M0.999908 403.762H712.02" stroke="#263238" stroke-linecap="round" stroke-linejoin="round"/>
</svg>
