<svg id="logo" width="460" height="50" viewBox="0 0 460 50" fill="none" xmlns="http://www.w3.org/2000/svg">
<g clip-path="url(#clip0_2283_41672)">
<path fill-rule="evenodd" clip-rule="evenodd" d="M88.5226 39.8482L86.5943 24.4195L83.4264 39.8482H79.0327L75.5204 24.4195L73.4131 39.8482H65.6861L70.1625 9.16934H78.1512L81.0574 22.7106L84.1289 9.16247H91.8627L96.2496 39.8482H88.5226ZM115.14 9.16934V16.8768H107.323V20.83H112.854V28.5444H107.323V32.2231H115.14V39.8482H99.5828V9.16934H115.133H115.14ZM119.355 9.16934H136.399V17.5014H131.744V39.8413H123.921V17.5082H119.355V9.16247V9.16934ZM139.292 39.8482L146.936 9.16934H155.985L163.63 39.8482H155.985L154.753 35.4557H148.169L147.026 39.8482H139.292ZM153.348 29.3474L151.509 21.5507L149.491 29.3611H153.355L153.348 29.3474ZM182.513 9.16934L188.663 39.8482H180.846L177.506 16.9729H176.887L173.464 39.8482H165.737L171.708 9.16934H182.513ZM207.546 9.16934L213.786 39.8482H205.969L202.629 16.9729H202.009L198.587 39.8482H190.86L196.92 9.16934H207.546ZM239.873 9.16934V39.8482H232.056V25.7647L224.853 39.8482H217.126V9.16934H224.853V23.9666L232.58 9.16247H239.873V9.16934ZM253.226 9.16934V20.83H259.114V9.16247H266.841V39.8482H259.114V28.5512H253.226V39.855H245.499V9.1762H253.226V9.16934ZM284.058 9.16934C285.008 9.14295 285.951 9.33044 286.818 9.71783C287.685 10.1052 288.453 10.6825 289.065 11.4068C290.291 12.9304 290.911 14.907 290.911 17.2406C290.911 19.1211 290.649 20.5555 290.119 21.633C289.588 22.6214 288.893 23.342 288.011 23.6097C289.367 23.9683 290.551 24.7953 291.351 25.9432C292.316 27.2884 292.749 28.9973 292.749 30.9671C292.749 33.7536 292.136 35.991 290.821 37.5215C289.416 39.1344 287.571 39.855 285.112 39.855H272.199V9.15561H284.058V9.16934ZM280.016 15.7993V20.1986H281.338C282.474 20.1986 283.094 19.4848 283.094 18.0504C283.094 16.5199 282.474 15.7993 281.338 15.7993H280.016ZM280.016 27.4668V31.9554H282.034C283.273 31.9554 283.969 31.2348 283.969 29.7111C283.969 28.9973 283.797 28.4551 283.445 28.0983C283.076 27.7116 282.569 27.4849 282.034 27.4668H280.016ZM312.342 9.16247V16.8837H304.526V20.8369H312.253V28.5512H304.533V32.2299H312.349V39.855H296.799V9.1762H312.349L312.342 9.16247ZM330.089 19.0387C329.466 19.0158 328.845 19.1414 328.28 19.4052C327.715 19.669 327.221 20.0633 326.839 20.5555C326.129 21.5438 325.785 22.889 325.785 24.5088C325.785 26.0324 326.129 27.3776 326.921 28.4551C327.278 28.9545 327.755 29.356 328.309 29.6224C328.863 29.8887 329.475 30.0113 330.089 29.9788C330.964 29.9788 331.584 29.9788 332.018 29.8003C332.541 29.7111 332.982 29.5258 333.333 29.3542V39.855C333.161 39.9443 332.72 40.0335 332.279 40.1227C331.845 40.2119 331.054 40.2119 330.089 40.2119C326.047 40.2119 322.789 38.6883 320.338 35.3665C318.141 32.4015 317.087 28.812 317.087 24.5088C317.087 20.2878 318.141 16.6984 320.338 13.7334C322.707 10.5077 325.957 8.89481 330.089 8.89481C330.792 8.89481 331.398 8.89481 331.928 8.98403C332.458 9.16247 332.892 9.25856 333.333 9.34092V19.7525C332.989 19.5741 332.541 19.3956 332.279 19.2995C331.564 19.1192 330.828 19.0315 330.089 19.0387ZM337.465 9.16247H354.592V17.5082H349.937V39.8482H342.121V17.5082H337.465V9.16247ZM367.154 20.5555H371.899C374.096 20.5555 375.941 21.3654 377.339 22.9851C378.923 24.6872 379.633 26.9315 379.633 29.8896C379.633 32.8545 378.923 35.2772 377.429 37.1646C376.777 38.0065 375.939 38.6867 374.979 39.1523C374.02 39.6178 372.966 39.856 371.899 39.8482H359.337V9.16934H377.346V15.6208H367.154V20.5624V20.5555ZM367.154 28.009V32.4015H369.089C370.404 32.4015 371.017 31.6877 371.017 30.1641C371.017 29.4435 370.845 28.9013 370.494 28.5444C370.311 28.3608 370.092 28.2181 369.849 28.1258C369.607 28.0334 369.348 27.9937 369.089 28.009H367.154ZM382.091 39.8482L389.736 9.16934H398.688L406.333 39.8482H398.688L397.552 35.4557H390.872L389.729 39.8482H382.084H382.091ZM396.058 29.1758L394.212 21.7291L392.187 29.1758H396.058ZM418.102 9.16247V20.83H423.901V9.16247H431.635V39.8482H423.901V28.5512H418.102V39.855H410.286V9.1762H418.102V9.16247ZM444.892 9.16247V20.2878L450.256 9.16934H458.245L451.393 23.4312L458.507 39.8482H450.518L444.898 26.657V39.8482H437.165V9.16934H444.898L444.892 9.16247ZM25.7361 0C38.8209 0.480429 49.275 11.2146 49.3576 24.3715C49.387 30.8849 46.8259 37.1446 42.2349 41.7804C37.6439 46.4162 31.3969 49.0505 24.8615 49.1067C18.321 49.147 12.0314 46.6013 7.37115 42.0277C2.71092 37.4542 0.0602899 31.2258 0.000258951 24.7078C-0.0288435 18.3688 2.39607 12.2627 6.77031 7.66049C11.1446 3.05827 17.1311 0.314415 23.4841 0L23.5116 6.97995C19.0035 7.27694 14.7787 9.27627 11.6985 12.5703C8.6184 15.8644 6.91486 20.2052 6.93522 24.7078C6.95499 27.3336 7.56393 29.9217 8.71741 32.2825C9.87089 34.6434 11.5397 36.7172 13.6016 38.352L20.2955 20.782L15.647 20.8163C15.647 20.8163 14.731 20.631 14.2076 21.0634L13.1058 22.1203C13.1058 22.1203 13.0162 19.224 13.1471 18.9221C13.2779 18.5514 13.6498 15.6483 14.9445 14.1658C16.253 12.7382 18.3397 12.5392 18.3397 12.5392L33.2151 12.4363L31.0664 14.6668L36.2315 37.9196C38.173 36.2554 39.728 34.1903 40.7887 31.8675C41.8495 29.5446 42.3906 27.0196 42.3745 24.4676C42.3332 19.9849 40.5848 15.6852 37.483 12.4386C34.3813 9.19195 30.1578 7.2408 25.6672 6.97995L25.7361 0ZM20.0545 14.4884C20.5021 14.4884 20.8809 14.8315 20.8809 15.2571C20.8809 15.6757 20.5159 16.0258 20.0683 16.0258C19.6137 16.0326 19.2419 15.6894 19.2419 15.2708C19.2419 14.8384 19.6 14.4952 20.0545 14.4884Z" fill="#003082"/>
</g>
<defs>
<clipPath id="clip0_2283_41672">
<rect width="460" height="49.1068" fill="white"/>
</clipPath>
</defs>
</svg>
