<svg width="669" height="305" viewBox="0 0 669 305" fill="none" xmlns="http://www.w3.org/2000/svg">
<path d="M512.156 52.4908C516.842 54.5348 528.303 54.272 528.303 54.272C528.303 54.272 525.836 46.7676 525.632 46.315C523.106 41.059 515.163 32.372 508.681 33.175C507.612 33.3509 506.591 33.7499 505.686 34.346C504.781 34.9421 504.012 35.722 503.428 36.6349C502.844 37.5479 502.459 38.5735 502.297 39.6451C502.136 40.7167 502.202 41.8103 502.491 42.8548C503.556 47.41 508.155 50.7388 512.156 52.4908Z" fill="white"/>
<path d="M628.08 55.002C628.167 55.075 630.153 47.3954 630.226 46.899C631.029 41.059 629.189 29.4812 623.306 26.6488C622.316 26.204 621.244 25.9727 620.16 25.9698C619.075 25.9668 618.002 26.1924 617.01 26.6318C616.019 27.0711 615.131 27.7144 614.404 28.5198C613.678 29.3252 613.129 30.2746 612.794 31.3062C611.217 35.6862 613.217 40.9422 615.582 44.6068C618.4 48.8992 628.065 55.002 628.08 55.002Z" fill="white"/>
<path d="M662.288 13.48C655.791 12.7792 648.082 21.6706 645.702 26.9996C645.498 27.4668 643.118 35.0296 643.235 35.0296H643.381C642.154 36.4896 640.855 37.9496 639.453 39.614C636.927 42.7238 634.08 46.2716 631.248 50.345C628.147 54.6951 625.305 59.2241 622.736 63.9084C619.82 69.1403 617.377 74.6225 615.436 80.2896C615.428 80.3575 615.428 80.4261 615.436 80.494C615.436 78.5814 615.436 73.194 615.334 72.8144C614.575 66.9744 609.728 56.3018 603.304 55.1192C602.229 54.9494 601.131 55.0088 600.082 55.2936C599.032 55.5784 598.054 56.0821 597.213 56.7715C596.372 57.461 595.686 58.3207 595.201 59.2941C594.716 60.2674 594.442 61.3325 594.398 62.4192C594.018 67.0182 597.318 71.6172 600.603 74.5226C604.267 77.793 614.429 80.9612 615.203 81.2094C613.379 87.0214 611.94 92.9472 610.896 98.9484C610.282 102.438 609.757 105.971 609.29 109.533C609.29 107.884 609.29 106.394 609.202 106.19C608.443 100.35 603.596 89.6774 597.186 88.4948C596.111 88.3251 595.012 88.3845 593.962 88.6692C592.911 88.9539 591.933 89.4573 591.091 90.1466C590.248 90.8359 589.561 91.6954 589.075 92.6687C588.588 93.6421 588.312 94.7074 588.266 95.7948C587.886 100.394 591.186 104.993 594.471 107.898C597.756 110.804 606.384 113.738 608.676 114.439L608.151 118.542C607.377 125.082 606.618 131.682 605.683 138.033C605.362 140.281 604.953 142.486 604.559 144.69C604.559 143.23 604.559 141.989 604.472 141.77C603.727 135.93 598.88 125.258 592.456 124.075C591.382 123.905 590.284 123.965 589.234 124.249C588.184 124.534 587.207 125.038 586.365 125.727C585.524 126.417 584.838 127.276 584.353 128.25C583.868 129.223 583.594 130.288 583.55 131.375C583.17 135.959 586.47 140.558 589.755 143.464C593.04 146.369 600.822 148.997 603.537 149.873C603.055 152.122 602.588 154.385 602.077 156.545C601.668 158.005 601.362 159.465 600.865 160.925C600.369 162.385 599.931 163.845 599.478 165.218C598.5 167.919 597.507 170.707 596.471 173.306C595.785 175.131 595.084 176.839 594.383 178.577C594.733 176.343 595.332 171.948 595.347 171.569C595.275 166.437 593.888 161.41 591.317 156.969C591.334 156.397 591.3 155.826 591.215 155.261C591.08 154.184 590.72 153.148 590.158 152.22C589.597 151.293 588.846 150.493 587.955 149.875C587.063 149.256 586.052 148.833 584.986 148.631C583.92 148.43 582.824 148.455 581.769 148.705C575.461 150.384 571.446 161.466 571.154 167.291C571.154 167.627 571.359 171.379 571.549 173.744C571.227 172.372 570.935 171.029 570.585 169.627C569.928 166.838 569.125 164.064 568.395 161.086L567.096 156.706C566.687 155.246 566.074 153.786 565.563 152.326C564.322 148.924 562.891 145.522 561.372 142.106C563.811 141.522 572.454 139.317 575.972 136.646C579.491 133.974 583.083 129.667 583.053 125.053C583.084 123.969 582.885 122.891 582.471 121.889C582.057 120.887 581.437 119.984 580.65 119.237C579.864 118.491 578.929 117.918 577.907 117.557C576.885 117.196 575.798 117.053 574.717 117.14C568.22 117.841 562.584 128.192 561.402 133.901C561.402 134.251 560.949 138.441 560.788 140.748C559.854 138.719 558.934 136.689 557.868 134.66C554.948 128.82 551.839 122.98 548.758 117.14C547.809 115.359 546.889 113.578 545.955 111.782C546.831 111.592 557.168 109.198 561.051 106.205C564.497 103.562 568.161 99.2258 568.132 94.6122C568.162 93.5284 567.964 92.4504 567.55 91.4483C567.136 90.4462 566.515 89.5426 565.729 88.7961C564.943 88.0497 564.008 87.4771 562.986 87.1158C561.963 86.7545 560.876 86.6125 559.796 86.699C553.299 87.3998 547.663 97.7512 546.48 103.46C546.393 103.883 545.853 109.928 545.794 111.461C543.75 107.533 541.75 103.591 539.954 99.62C537.477 94.2796 535.35 88.7832 533.589 83.1658C533.997 83.0636 544.787 80.6108 548.773 77.5594C552.218 74.9168 555.883 70.5806 555.854 65.967C555.884 64.8818 555.685 63.8025 555.27 62.7993C554.855 61.7962 554.234 60.8918 553.446 60.1451C552.657 59.3984 551.721 58.8262 550.697 58.4659C549.673 58.1056 548.584 57.9651 547.502 58.0538C541.02 58.7546 535.384 69.106 534.202 74.8146C534.129 75.1796 533.705 79.7786 533.559 81.9686H533.194C531.566 76.269 530.452 70.4349 529.866 64.5362C529.501 61.295 529.34 58.1706 529.238 55.1338C531.296 54.8856 540.684 53.6738 544.568 51.2794C548.451 48.885 552.423 45.1182 552.89 40.5338C553.036 39.4603 552.954 38.3681 552.65 37.3281C552.346 36.2882 551.827 35.3238 551.126 34.4977C550.425 33.6715 549.559 33.002 548.582 32.5328C547.606 32.0635 546.541 31.8049 545.458 31.7738C538.932 31.7738 532.202 41.4244 530.406 46.9724C530.304 47.279 529.647 50.4472 529.209 52.8124C529.209 51.44 529.136 50.0238 529.136 48.7098C529.136 43.775 529.457 39.249 529.778 35.2486C529.968 32.971 530.187 30.8686 530.42 28.9998C532.304 27.7004 539.852 22.3714 542.173 18.5608C544.495 14.7502 546.305 9.47959 544.612 5.18719C544.248 4.16452 543.673 3.22985 542.924 2.44389C542.176 1.65794 541.27 1.03828 540.266 0.625199C539.262 0.212116 538.183 0.0148439 537.098 0.0461978C536.013 0.0775518 534.947 0.336827 533.968 0.807186C528.128 3.72719 526.668 15.4072 527.603 21.2472C527.69 21.7436 529.88 29.3648 529.982 29.3064L530.085 29.2188C529.836 31.073 529.588 33.044 529.355 35.2048C528.96 39.2052 528.537 43.7312 528.42 48.6952C528.245 54.0517 528.376 59.4138 528.814 64.7552C529.254 70.7198 530.231 76.6325 531.734 82.4212C531.734 82.4212 531.734 82.5526 531.734 82.6256C530.712 81.005 527.69 76.5958 527.354 76.2746C523.544 71.8946 513.587 65.5874 507.571 68.1424C506.584 68.5927 505.702 69.2461 504.984 70.06C504.266 70.8739 503.728 71.8299 503.404 72.8659C503.081 73.9018 502.979 74.9943 503.106 76.0722C503.233 77.1501 503.585 78.1891 504.14 79.1216C506.36 83.1658 511.689 85.1514 515.996 85.7938C520.857 86.4946 531.077 83.5308 531.895 83.2826C533.573 89.1394 535.646 94.8758 538.1 100.452C539.56 103.708 541.02 106.949 542.582 110.176C541.648 108.803 540.801 107.592 540.67 107.431C536.859 103.051 526.887 96.7438 520.887 99.2988C519.899 99.7491 519.018 100.403 518.3 101.216C517.582 102.03 517.043 102.986 516.719 104.022C516.396 105.058 516.294 106.151 516.421 107.229C516.548 108.306 516.9 109.346 517.456 110.278C519.675 114.322 524.989 116.322 529.296 116.95C533.603 117.578 542.436 115.227 544.758 114.57C545.371 115.811 545.969 117.038 546.583 118.264C549.503 124.104 552.525 130.046 555.343 135.886C556.306 137.945 557.182 140.018 558.073 142.077C557.241 140.865 556.525 139.843 556.408 139.712C552.598 135.332 542.626 129.024 536.625 131.579C535.638 132.028 534.757 132.68 534.039 133.493C533.321 134.305 532.783 135.26 532.459 136.295C532.135 137.33 532.033 138.421 532.16 139.498C532.287 140.575 532.639 141.613 533.194 142.544C535.414 146.588 540.728 148.588 545.035 149.216C549.342 149.844 557.328 147.756 560.088 146.953C560.92 149.099 561.781 151.246 562.497 153.348C562.964 154.808 563.504 156.18 563.884 157.655C564.263 159.13 564.687 160.575 565.095 162.035C565.767 164.824 566.468 167.7 567.052 170.43C567.475 172.343 567.84 174.153 568.22 175.993C567.271 173.919 565.3 169.919 565.154 169.612C562.044 164.678 553.153 156.954 546.816 158.575C545.774 158.87 544.805 159.383 543.974 160.078C543.142 160.774 542.467 161.636 541.991 162.61C541.516 163.585 541.252 164.648 541.215 165.731C541.178 166.814 541.371 167.893 541.779 168.897C543.356 173.277 548.305 176.007 552.466 177.292C557.065 178.752 567.212 177.409 568.526 177.292C569.125 180.329 569.694 183.293 570.176 186.052C571.023 190.812 571.636 195.192 572.249 199.09H576.469C575.797 195.002 575.009 190.33 573.987 185.337C573.374 182.256 572.673 178.986 571.914 175.613C574.963 174.384 577.942 172.986 580.834 171.423C584.178 175.044 592.748 179.278 593.857 179.818C592.689 182.738 591.521 185.453 590.383 188.052C588.631 192.082 586.952 195.776 585.389 199.09H589.901C591.2 196.17 592.558 192.987 593.945 189.556C595.142 186.636 596.369 183.526 597.595 180.3C598.821 180.562 608.866 182.606 613.553 181.541C617.801 180.577 622.941 178.183 624.839 173.978C625.321 173.006 625.594 171.944 625.637 170.86C625.681 169.776 625.496 168.695 625.094 167.688C624.691 166.681 624.081 165.77 623.302 165.014C622.524 164.259 621.595 163.677 620.575 163.305C614.385 161.217 604.939 168.255 601.479 172.941C601.274 173.219 599.391 176.474 598.237 178.548C598.734 177.219 599.23 175.949 599.697 174.576C600.69 171.89 601.595 169.174 602.617 166.254C603.041 164.794 603.479 163.334 603.902 161.874C604.326 160.414 604.676 158.867 605.07 157.348C605.917 153.815 606.53 150.194 607.202 146.53C609.552 147.391 617.977 150.326 622.342 150.019C626.707 149.713 632.139 148.107 634.65 144.179C635.275 143.291 635.705 142.28 635.913 141.214C636.121 140.148 636.102 139.05 635.857 137.992C635.611 136.934 635.146 135.939 634.49 135.073C633.834 134.207 633.003 133.489 632.051 132.966C626.211 130.046 615.845 135.492 611.713 139.609C611.465 139.872 608.793 143.157 607.421 144.982C607.757 142.778 608.122 140.602 608.399 138.339C609.202 131.857 609.859 125.287 610.458 118.731C610.647 116.717 610.866 114.716 611.071 112.716C611.918 113.023 621.846 116.731 626.737 116.381C631.117 116.074 636.533 114.483 639.044 110.541C639.669 109.654 640.099 108.644 640.307 107.579C640.515 106.514 640.496 105.417 640.25 104.36C640.005 103.303 639.539 102.31 638.884 101.445C638.228 100.581 637.397 99.8641 636.446 99.3426C630.606 96.3496 620.24 101.868 616.108 105.986C615.801 106.292 612.02 111.023 611.115 112.278C611.582 107.898 612.078 103.518 612.764 99.1382C613.641 93.3155 614.894 87.5559 616.517 81.8956C616.911 82.0416 627.262 85.9544 632.27 85.5894C636.65 85.2974 642.067 83.6914 644.578 79.837C645.203 78.9485 645.633 77.9382 645.841 76.8721C646.049 75.8059 646.03 74.7079 645.785 73.6497C645.539 72.5915 645.074 71.597 644.418 70.731C643.762 69.8651 642.931 69.1471 641.979 68.6242C636.139 65.7042 625.773 71.15 621.641 75.2672C621.378 75.53 618.488 79.1362 617.159 80.8882L616.823 80.713C618.618 75.0614 620.91 69.5797 623.671 64.3318C625.131 61.4118 626.737 58.74 628.343 56.1558C630.197 57.0756 638.709 61.2074 643.249 61.3972C647.79 61.587 653.192 60.5796 656.112 57.0172C656.829 56.2035 657.366 55.248 657.689 54.2128C658.013 53.1776 658.114 52.086 657.987 51.0089C657.861 49.9319 657.509 48.8936 656.954 47.9617C656.399 47.0298 655.655 46.2251 654.769 45.6C649.323 41.9938 638.387 46.33 633.818 49.98C633.569 50.1698 631.277 52.462 629.627 54.1556C630.372 53.0022 631.087 51.7904 631.832 50.6954C634.562 46.5782 637.322 42.9866 639.789 39.8184C641.249 38.0226 642.519 36.4312 643.775 34.9566C646.067 34.9566 655.294 34.6354 659.338 32.752C663.383 30.8686 667.792 27.4376 668.741 22.9262C668.991 21.8783 669.02 20.7896 668.824 19.73C668.629 18.6704 668.214 17.6635 667.606 16.7738C666.999 15.8842 666.211 15.1315 665.295 14.5643C664.379 13.997 663.355 13.6277 662.288 13.48Z" fill="white"/>
<path d="M9.95962 158.4C14.6462 160.444 26.1072 160.181 26.1072 160.181C26.1072 160.181 23.6398 152.691 23.4354 152.224C20.9096 146.968 12.9672 138.281 6.48481 139.157C5.41548 139.333 4.39513 139.732 3.49009 140.328C2.58505 140.924 1.81559 141.704 1.23173 142.617C0.647866 143.53 0.262672 144.556 0.101185 145.627C-0.060302 146.699 0.00553368 147.792 0.294414 148.837C1.36021 153.319 5.95922 156.648 9.95962 158.4Z" fill="white"/>
<path d="M125.884 160.926C125.971 160.926 127.957 153.305 128.03 152.808C128.833 146.968 126.993 135.405 121.109 132.558C120.12 132.113 119.048 131.882 117.964 131.879C116.879 131.876 115.806 132.102 114.814 132.541C113.822 132.98 112.934 133.624 112.208 134.429C111.481 135.234 110.933 136.184 110.597 137.215C109.021 141.595 111.021 146.866 113.386 150.516C116.16 154.808 125.869 160.911 125.884 160.926Z" fill="white"/>
<path d="M160.091 119.388C153.594 118.688 145.886 127.579 143.506 132.908C143.301 133.375 140.922 140.938 141.038 140.938H141.184C139.958 142.325 138.659 143.858 137.257 145.522C134.731 148.647 131.884 152.195 129.052 156.253C125.956 160.607 123.114 165.136 120.54 169.817C117.623 175.049 115.18 180.531 113.24 186.198C113.232 186.266 113.232 186.335 113.24 186.402C113.24 184.49 113.24 179.102 113.138 178.723C112.379 172.883 107.531 162.21 101.107 161.028C100.033 160.86 98.9363 160.921 97.8876 161.207C96.8389 161.493 95.8623 161.997 95.0216 162.686C94.181 163.375 93.4953 164.233 93.0093 165.206C92.5233 166.178 92.248 167.242 92.2014 168.328C91.8218 172.912 95.1214 177.511 98.4064 180.416C102.071 183.687 112.233 186.855 113.006 187.103C111.184 192.916 109.745 198.841 108.699 204.842C108.086 208.332 107.561 211.879 107.093 215.427C107.093 213.777 107.093 212.288 107.006 212.084C106.247 206.244 101.399 195.571 94.99 194.389C93.9153 194.221 92.8174 194.282 91.7679 194.568C90.7184 194.854 89.7409 195.357 88.8992 196.046C88.0574 196.735 87.3704 197.593 86.8828 198.566C86.3952 199.538 86.118 200.602 86.0694 201.689C85.6898 206.273 88.9894 210.872 92.2744 213.777C95.5594 216.683 104.188 219.617 106.48 220.333L105.955 224.421C105.181 230.976 104.495 237.561 103.487 243.912C103.166 246.16 102.757 248.365 102.363 250.584C102.363 249.124 102.363 247.868 102.275 247.664C101.531 241.824 96.6836 231.151 90.2596 229.969C89.1857 229.801 88.0885 229.863 87.0398 230.148C85.9911 230.434 85.0145 230.938 84.1738 231.627C83.3332 232.316 82.6475 233.175 82.1615 234.147C81.6755 235.119 81.4002 236.183 81.3536 237.269C80.974 241.853 84.2736 246.452 87.5586 249.358C90.8436 252.263 98.6254 254.891 101.341 255.767C100.859 258.03 100.392 260.278 99.881 262.439C99.4722 263.899 99.1656 265.359 98.6692 266.819C98.1728 268.279 97.7348 269.739 97.2822 271.112C96.304 273.813 95.3112 276.601 94.2746 279.2C93.5884 281.025 92.8146 282.748 92.1868 284.471C92.5372 282.237 93.1358 277.842 93.1504 277.463C93.0812 272.331 91.6936 267.303 89.1208 262.863C89.1382 262.286 89.104 261.71 89.0186 261.14C88.8817 260.065 88.5204 259.03 87.958 258.103C87.3957 257.176 86.6449 256.378 85.7543 255.76C84.8637 255.142 83.8532 254.718 82.7883 254.516C81.7233 254.313 80.6277 254.336 79.5724 254.584C73.2652 256.278 69.2502 267.345 68.9582 273.17C68.9582 273.506 69.1626 277.258 69.3524 279.623C69.0312 278.251 68.7392 276.908 68.3888 275.506C67.7318 272.718 66.9288 269.944 66.1988 266.965L64.8994 262.658C64.4906 261.198 63.8774 259.738 63.4394 258.278C62.1984 254.876 60.7676 251.475 59.2492 248.058C61.6874 247.474 70.3306 245.27 73.8492 242.598C77.3678 239.926 80.9594 235.619 80.9302 231.005C80.9603 229.922 80.7619 228.844 80.3478 227.842C79.9338 226.839 79.3134 225.936 78.527 225.189C77.7406 224.443 76.8058 223.87 75.7836 223.509C74.7613 223.148 73.6744 223.006 72.5936 223.092C66.0966 223.808 60.461 234.144 59.2784 239.853C59.2784 240.203 58.8258 244.394 58.6652 246.715C57.7308 244.671 56.811 242.642 55.8182 240.627C52.8982 234.787 49.7884 228.947 46.7078 223.107C45.7588 221.311 44.839 219.53 43.9046 217.749C44.7806 217.544 55.1174 215.15 59.001 212.171C62.4466 209.514 66.1112 205.178 66.082 200.564C66.1121 199.481 65.9137 198.403 65.4996 197.401C65.0856 196.398 64.4652 195.495 63.6788 194.748C62.8924 194.002 61.9576 193.429 60.9354 193.068C59.9131 192.707 58.8262 192.565 57.7454 192.651C51.2484 193.367 45.6128 203.703 44.4302 209.412C44.3426 209.85 43.8024 215.88 43.744 217.413C41.7 213.485 39.6998 209.543 37.904 205.572C35.4239 200.233 33.2974 194.736 31.5384 189.118C31.9472 189.03 42.7366 186.578 46.7224 183.512C50.168 180.869 53.8326 176.533 53.8034 171.919C53.8337 170.834 53.6349 169.755 53.22 168.752C52.8051 167.748 52.1833 166.844 51.3953 166.097C50.6073 165.351 49.6707 164.778 48.6467 164.418C47.6227 164.058 46.5342 163.917 45.4522 164.006C38.9698 164.707 33.3342 175.058 32.1516 180.767C32.1516 181.146 31.6552 185.745 31.5092 187.935H31.1442C29.5141 182.236 28.4001 176.402 27.8154 170.503C27.4504 167.262 27.2898 164.137 27.1876 161.101C29.2462 160.852 38.634 159.641 42.5176 157.246C46.4012 154.852 50.3724 151.085 50.8396 146.501C50.9855 145.427 50.9038 144.335 50.6 143.295C50.2962 142.255 49.777 141.291 49.0761 140.465C48.3753 139.638 47.5084 138.969 46.532 138.5C45.5555 138.03 44.4912 137.772 43.4082 137.741C36.882 137.741 30.1514 147.391 28.3556 152.939C28.2534 153.246 27.5964 156.414 27.1584 158.779C27.1584 157.407 27.1584 155.991 27.1584 154.677C27.1584 149.742 27.4796 145.216 27.8008 141.215C27.9906 138.938 28.2096 136.835 28.4432 134.981C30.3266 133.682 37.8748 128.338 40.1232 124.528C42.3716 120.717 44.255 115.446 42.5614 111.169C42.1976 110.146 41.6226 109.211 40.874 108.425C40.1253 107.639 39.2196 107.02 38.2158 106.607C37.2121 106.194 36.1326 105.996 35.0476 106.028C33.9626 106.059 32.8963 106.318 31.918 106.789C26.078 109.796 24.618 121.389 25.5524 127.229C25.64 127.725 27.83 135.361 27.9322 135.288L28.0344 135.215C27.7862 137.054 27.538 139.025 27.3044 141.186C26.9102 145.201 26.4868 149.727 26.37 154.677C26.1945 160.033 26.3261 165.395 26.7642 170.737C27.2035 176.701 28.1808 182.614 29.6842 188.403C29.6842 188.476 29.6842 188.534 29.6842 188.607C28.6622 186.986 25.64 182.577 25.3042 182.256C21.4936 177.876 11.5364 171.583 5.52122 174.124C4.53374 174.574 3.65225 175.228 2.93424 176.041C2.21622 176.855 1.6778 177.811 1.35407 178.847C1.03035 179.883 0.928588 180.976 1.05543 182.054C1.18227 183.132 1.53487 184.171 2.09022 185.103C4.30942 189.147 9.63842 191.147 13.9454 191.775C18.8072 192.476 29.0272 189.512 29.8448 189.279C31.5252 195.13 33.5983 200.861 36.0498 206.434C37.5098 209.689 38.9698 212.931 40.532 216.157C39.5976 214.799 38.7508 213.573 38.6194 213.427C34.8088 209.047 24.837 202.74 18.8364 205.28C17.8743 205.734 17.0164 206.382 16.3165 207.183C15.6165 207.985 15.0897 208.922 14.7689 209.936C14.4481 210.951 14.3404 212.02 14.4525 213.078C14.5645 214.136 14.8939 215.16 15.42 216.084C17.6392 220.128 22.9536 222.129 27.2606 222.756C31.5676 223.384 40.4006 221.034 42.722 220.377L44.547 224.085C47.467 229.925 50.4892 235.853 53.307 241.693C54.2706 243.766 55.1466 245.824 56.0372 247.883C55.205 246.671 54.4896 245.664 54.3728 245.518C50.5622 241.138 40.5904 234.831 34.5898 237.386C33.6023 237.836 32.7208 238.489 32.0028 239.303C31.2848 240.117 30.7464 241.073 30.4227 242.109C30.0989 243.145 29.9972 244.238 30.124 245.315C30.2509 246.393 30.6035 247.432 31.1588 248.365C33.378 252.394 38.6924 254.395 42.9994 255.022C47.3064 255.65 55.2926 253.562 58.052 252.774C58.8842 254.906 59.7456 257.052 60.461 259.169C60.9282 260.629 61.4684 261.987 61.848 263.461C62.2276 264.936 62.651 266.381 63.0598 267.841C63.7314 270.63 64.4322 273.506 65.0162 276.251C65.4396 278.149 65.8046 279.959 66.1842 281.799C65.2352 279.74 63.2642 275.74 63.1182 275.419C60.0084 270.484 51.117 262.775 44.7806 264.381C43.7374 264.678 42.7685 265.192 41.9371 265.889C41.1056 266.586 40.4303 267.45 39.9551 268.425C39.4799 269.4 39.2155 270.465 39.1791 271.549C39.1426 272.633 39.335 273.713 39.7436 274.718C41.3204 279.098 46.2698 281.828 50.4308 283.098C55.0298 284.558 65.1768 283.215 66.4908 283.098C67.0894 286.135 67.6588 289.099 68.1406 291.858C68.9874 296.618 69.6006 300.998 70.2138 304.896H74.4332C73.7616 300.808 72.9732 296.136 71.9512 291.157C71.338 288.077 70.6372 284.792 69.878 281.419C72.9334 280.204 75.9124 278.805 78.7986 277.229C82.142 280.85 90.7122 285.084 91.8218 285.624C90.6538 288.544 89.4858 291.26 88.347 293.858C86.595 297.903 84.916 301.582 83.3538 304.896H87.8652C89.1646 301.976 90.5224 298.793 91.9094 295.362C93.1066 292.442 94.333 289.332 95.5594 286.106C96.7858 286.369 106.831 288.413 111.517 287.347C115.766 286.398 120.905 283.989 122.803 279.784C123.286 278.813 123.558 277.75 123.602 276.666C123.646 275.583 123.461 274.502 123.058 273.494C122.656 272.487 122.045 271.576 121.267 270.821C120.488 270.065 119.559 269.483 118.54 269.111C112.349 267.038 102.903 274.061 99.443 278.747C99.2386 279.025 97.3552 282.281 96.2018 284.354C96.6982 283.025 97.1946 281.755 97.6618 280.383C98.6546 277.696 99.5598 274.981 100.582 272.061C101.005 270.601 101.443 269.141 101.867 267.681C102.29 266.221 102.64 264.673 103.035 263.155C103.881 259.621 104.495 256.001 105.166 252.336C107.517 253.197 115.941 256.132 120.306 255.825C124.672 255.519 130.103 253.927 132.614 250.058C133.239 249.171 133.669 248.162 133.877 247.097C134.085 246.032 134.066 244.935 133.82 243.878C133.575 242.821 133.109 241.828 132.454 240.963C131.798 240.098 130.967 239.382 130.015 238.86C124.175 235.867 113.809 241.386 109.678 245.489C109.429 245.751 106.758 249.036 105.385 250.861C105.721 248.657 106.086 246.481 106.363 244.218C107.166 237.751 107.823 231.166 108.422 224.611C108.612 222.596 108.831 220.596 109.035 218.595C109.882 218.917 119.81 222.61 124.701 222.26C129.081 221.968 134.498 220.362 137.009 216.508C137.634 215.619 138.064 214.609 138.272 213.543C138.48 212.477 138.461 211.379 138.216 210.32C137.97 209.262 137.505 208.268 136.849 207.402C136.193 206.536 135.362 205.818 134.41 205.295C128.57 202.302 118.204 207.821 114.072 211.938C113.766 212.244 109.984 216.975 109.079 218.23C109.546 213.85 110.043 209.47 110.729 205.09C111.607 199.268 112.86 193.508 114.481 187.848C114.875 187.994 125.227 191.907 130.234 191.556C134.614 191.25 140.031 189.644 142.542 185.716C143.167 184.829 143.597 183.82 143.805 182.755C144.013 181.69 143.993 180.593 143.748 179.536C143.503 178.479 143.037 177.485 142.382 176.621C141.726 175.756 140.895 175.039 139.943 174.518C134.103 171.525 123.737 177.029 119.606 181.146C119.343 181.424 116.452 185.015 115.123 186.767L114.788 186.592C116.58 180.944 118.872 175.467 121.635 170.226C123.095 167.306 124.701 164.619 126.307 162.035C128.161 162.955 136.673 167.101 141.214 167.276C145.754 167.452 151.156 166.459 154.076 162.896C154.793 162.083 155.331 161.127 155.654 160.092C155.977 159.057 156.079 157.965 155.952 156.888C155.825 155.811 155.473 154.773 154.918 153.841C154.364 152.909 153.619 152.104 152.733 151.479C147.287 147.873 136.352 152.209 131.782 155.859C131.534 156.064 129.242 158.341 127.592 160.035C128.336 158.881 129.052 157.67 129.796 156.575C132.527 152.457 135.286 148.866 137.753 145.698C139.213 143.916 140.484 142.325 141.739 140.85C144.031 140.85 153.259 140.529 157.303 138.631C161.347 136.733 165.756 133.317 166.705 128.82C166.953 127.761 166.975 126.662 166.769 125.594C166.563 124.527 166.133 123.515 165.509 122.624C164.885 121.734 164.079 120.985 163.146 120.428C162.212 119.87 161.171 119.516 160.091 119.388Z" fill="white"/>
</svg>
