<svg width="234" height="175" viewBox="0 0 234 175" fill="none" xmlns="http://www.w3.org/2000/svg">
<path d="M166.421 26.6358C168.189 24.8717 169.496 22.6999 170.227 20.3117C170.957 17.9235 171.09 15.3923 170.611 12.941L161.048 22.4894C160.503 23.0244 159.769 23.3241 159.004 23.3241C158.24 23.3241 157.506 23.0244 156.96 22.4894L149.018 14.547C148.483 14.0011 148.183 13.2673 148.183 12.503C148.183 11.7387 148.483 11.0048 149.018 10.459L158.566 0.895991C155.896 0.38299 153.136 0.593135 150.574 1.50469C148.012 2.41624 145.74 3.99605 143.994 6.08058C142.247 8.1651 141.089 10.6786 140.641 13.3608C140.192 16.043 140.468 18.7964 141.441 21.336L116.767 45.4406L114.387 43.0608L118.27 39.1772C118.453 38.9779 118.554 38.7175 118.554 38.4472C118.554 38.1769 118.453 37.9164 118.27 37.7172L115.263 34.7242C115.067 34.5351 114.805 34.4294 114.533 34.4294C114.26 34.4294 113.999 34.5351 113.803 34.7242L112.343 36.1842L109.087 32.943L110.343 31.6874C110.597 31.4166 110.739 31.0589 110.739 30.6873C110.739 30.3156 110.597 29.958 110.343 29.6872L83.4202 2.76479C82.7789 2.12336 82.0175 1.61453 81.1796 1.26738C80.3416 0.920236 79.4435 0.741561 78.5365 0.741561C77.6294 0.741561 76.7313 0.920236 75.8934 1.26738C75.0554 1.61453 74.294 2.12336 73.6527 2.76479L70.908 5.50957C70.2665 6.15086 69.7577 6.91224 69.4106 7.75019C69.0634 8.58814 68.8847 9.48626 68.8847 10.3933C68.8847 11.3003 69.0634 12.1984 69.4106 13.0364C69.7577 13.8743 70.2665 14.6357 70.908 15.277L97.8304 42.1994C98.1011 42.454 98.4588 42.5957 98.8305 42.5957C99.2021 42.5957 99.5598 42.454 99.8306 42.1994L101.072 40.9438L104.327 44.1996L102.867 45.6596C102.678 45.8555 102.573 46.1172 102.573 46.3896C102.573 46.6619 102.678 46.9236 102.867 47.1196L105.787 50.1272C105.987 50.3098 106.247 50.4111 106.517 50.4111C106.788 50.4111 107.048 50.3098 107.247 50.1272L111.131 46.2436L113.467 48.5796L93.027 68.5378C90.4873 67.5601 87.7322 67.2801 85.0478 67.727C82.3634 68.1738 79.8476 69.3313 77.7616 71.079C75.6757 72.8267 74.0957 75.101 73.1857 77.6657C72.2757 80.2304 72.069 82.992 72.587 85.6636L82.15 76.1152C82.6958 75.5802 83.4296 75.2805 84.194 75.2805C84.9583 75.2805 85.6921 75.5802 86.238 76.1152L94.1804 84.0576C94.7154 84.6034 95.0151 85.3373 95.0151 86.1016C95.0151 86.8659 94.7154 87.5998 94.1804 88.1456L84.632 97.7086C87.3026 98.2216 90.0619 98.0114 92.624 97.0999C95.1862 96.1883 97.4582 94.6085 99.2047 92.524C100.951 90.4395 102.109 87.926 102.558 85.2438C103.007 82.5616 102.73 79.8082 101.758 77.2686L122.198 57.325L150.084 85.211C149.685 86.2435 149.594 87.3696 149.822 88.4528C150.05 89.5359 150.587 90.5298 151.369 91.3138L158.099 98.0444L166.173 89.9706L159.442 83.24C158.658 82.4586 157.665 81.9213 156.581 81.6933C155.498 81.4653 154.372 81.5562 153.34 81.9552L125.454 54.2006L150.113 30.1252C152.877 31.189 155.89 31.4255 158.786 30.8059C161.682 30.1863 164.335 28.7374 166.421 26.6358Z" fill="#263238" stroke="#263238" stroke-linecap="round" stroke-linejoin="round"/>
<path d="M233.61 160.227H0.711159V174.111H233.61V160.227Z" fill="#2F54EB"/>
<path d="M91.8007 160.227H76.2955L68.3385 174.097H83.8437L91.8007 160.227Z" fill="#263238"/>
<path d="M233.61 174.097V161.57L226.427 174.097H233.61Z" fill="#263238"/>
<path d="M123.41 160.227H107.904L99.9619 174.097H115.467L123.41 160.227Z" fill="#263238"/>
<path d="M60.1768 160.227H44.6716L36.7146 174.097H52.2344L60.1768 160.227Z" fill="#263238"/>
<path d="M5.10577 174.097H20.611L28.568 160.227H13.0482L5.10577 174.097Z" fill="#263238"/>
<path d="M218.266 160.227H202.76L194.818 174.097H210.323L218.266 160.227Z" fill="#263238"/>
<path d="M155.033 160.227H139.528L131.571 174.097H147.091L155.033 160.227Z" fill="#263238"/>
<path d="M186.657 160.227H171.137L163.195 174.097H178.7L186.657 160.227Z" fill="#263238"/>
</svg>
